<svg xmlns="http://www.w3.org/2000/svg" viewBox="0 0 400 260" width="100%" height="100%">
  <defs>
    <linearGradient id="cPyBg" x1="0%" y1="0%" x2="100%" y2="100%">
      <stop offset="0%" stop-color="#1f1807" />
      <stop offset="100%" stop-color="#080602" />
    </linearGradient>
  </defs>
  <rect width="400" height="260" rx="12" fill="url(#cPyBg)" stroke="rgba(245, 158, 11, 0.3)" stroke-width="1.5" />
  <rect x="20" y="20" width="360" height="220" rx="8" fill="none" stroke="rgba(255, 255, 255, 0.08)" stroke-dasharray="4 4" />
  
  <g transform="translate(200, 85)">
    <circle cx="0" cy="0" r="32" fill="#382909" stroke="#f59e0b" stroke-width="2" />
    <path d="M-12 -10 C-12 -16, 0 -16, 0 -10 L0 0 L10 0 C16 0, 16 12, 10 12 L0 12 L0 2 M12 10 C12 16, 0 16, 0 10 L0 0 L-10 0 C-16 0, -16 -12, -10 -12 L0 -12 L0 -2" fill="none" stroke="#fbbf24" stroke-width="1.5" />
  </g>

  <text x="200" y="150" font-family="system-ui, sans-serif" font-size="14" font-weight="bold" fill="#f8fafc" text-anchor="middle">Python for Scientific Computing</text>
  <text x="200" y="172" font-family="monospace" font-size="11" fill="#f59e0b" text-anchor="middle">Coursera / University Program</text>
  
  <g transform="translate(200, 210)">
    <rect x="-85" y="-12" width="170" height="24" rx="12" fill="rgba(245, 158, 11, 0.1)" stroke="#f59e0b" stroke-width="1" />
    <text x="0" y="4" font-family="monospace" font-size="10" fill="#fbbf24" text-anchor="middle">VERIFIED CREDENTIAL</text>
  </g>
</svg>
